<?xml version="1.0" encoding="UTF-8"?>
<svg data-bbox="498.011 304.99 731.999 734.014" viewBox="0 0 1728 1296" height="1296" width="1728" xmlns="http://www.w3.org/2000/svg" data-type="shape">
    <g>
        <path d="M780.39 751.88c-.01.14-.01.27-.02.41.02-.25.04-.5.05-.74l-.03.33z"/>
        <path d="M1212.63 683.44c-29.68 5.18-58.4 13.76-87.1 22.13-11.55 3.15-19.19 5.23-27.21 6.84-9.98 1.76-18.79 6.62-26.71 12.16-2.15 1.44-4.14 3-6.01 4.64-1.22-15.12-3.34-30.16-6.73-45.01-2.49-8.5-5.5-25.99-19.22-22.57-4.2 1.87-7.47 4.97-10.97 7.73-2.7 2.04-5.68 3.75-8.59 5.53-5.67 3.43-11.8 6.19-18.1 8.57-6.37 2.25-3.68 1.25-10.9 3.73-4.94 2.13-9.66 5.12-13.48 8.78-8.88-10.6-27.42-16.73-41.04-18.15-1.24-.15-2.48-.23-3.71-.28 2.9-18.25 3.43-41.86-13.65-53.8 1.82-3.53 3.66-7.06 5.52-10.58 19.65-38.77 41.06-76.77 63.97-114.05 23.2-14.44 46.18-29.29 66.42-47.01 16.19-15.35 33.26-30.4 45.94-48.32 7.29-10.44 12.85-22.31 12.77-34.79-.27-16.43-11.06-27.72-30.54-22.74-13.72 4.84-23.41 15.81-32.62 25.68-20.35 24.1-36.43 50.84-53.56 76.81-6.03 9.2-11.92 18.48-17.69 27.8-14.84 9.29-30.04 18.53-42.67 26.14-45.06 27.09-90.88 53.14-137.17 78.5-12.23-92.44-24.14-184.71-31.2-276.19-4.14 47.37-4.29 95-.78 142.41 3.83 47.46 10.98 94.66 17.11 141.92-29.45 16.01-59.08 31.76-88.83 47.31-41.09 21.42-82.45 42.43-123.78 63.48-15.3 8-30.9 15.59-45.64 24.43-7.52 4.59-15.56 8.75-21.37 15.19-9.62 9.73-10.17 27.86 2.92 35.33 2.66 1.71 5.92 2.24 8.99 3.07 4.3 1.26 8.58 2.59 12.87 3.88 17.99 6.1 36.02 12.24 53.46 19.53 20.67 8.71 39.45 20.48 58.42 31.76 32.4 19.93 55.01 37.51 81.05 59.27 5.79 4.65 11.43 9.45 16.78 14.51 10.54 9.95 21.89 19.25 31.71 29.79 17.81 18.75 35.82 37.43 50.83 58.1 3.91 5.49 7.6 11.11 11.09 16.83 1.51 2.46 2.96 4.96 4.34 7.48 1.45 6.15 2.93 12.56 7.42 17.5 8.04 7.46 12.71-5.75 12.24-11.65.14-7.28-2.6-14.08-6.01-20.63-8.59-50.74-13.45-101.96-19.16-153.01-2.14-23.16-4.55-46.35-7.14-69.56 13.71-11.71 24.68-28.43 33.05-40.9 18.67-30.6 33.93-62.67 49.75-94.51 4.19 1.78 8.23 4.21 10.23 7.31.2.54.36.99.49 1.37 1.08 7.07.46 13.57-2.45 24.54-19.26 5.86-34.83 22.33-37.96 40.25-2.26 12.23 5.17 33.48 22.87 25.54 12.42-7.16 17.79-20.62 22.17-32.67 1.04-2.96 2.05-5.94 3.01-8.93 15.6-1.43 31.67 5.25 40.71 12.32.87.71 1.64 1.52 2.36 2.35 1.51 4.23 3.93 10.45 9.71 8.39 2.44-1.3 3.47-3.68 4.75-5.83 1.2-1.25 2.95-2.72 3.73-3.36 5.72-4.44 13.17-6.13 19.99-8.8 10.13-3.84 19.67-9.03 28.01-15.46 5.48-3.99 2.34-2.51 7.37-5.12 4.73 13.03 7.51 34.87 8.44 59.17-5.29 9.65-8.67 20.31-11.43 30.67-4.87 17.86-9.86 35.82-12.03 54.13-.95 9.49-1.54 25.15 8.54 30.71 7.37 2.41 13.5-3.77 16.77-9.01 10.18-16.51 11.56-36.09 12.89-54.56.77-13.83 1.19-27.73 1.03-41.63 1.26-1.53 2.62-3.11 3.33-3.68 2.24-2.26 4.65-4.39 7.2-6.36 5.08-3.67 10.44-7.11 16.22-9.82 9.95-3.6 20.18-6.56 29.88-10.72 25.71-10.85 50.68-23.05 76.35-33.97 9.99-4.33 20.01-8.58 30.13-12.65-5.82.8-11.61 1.71-17.38 2.74zm-117.57-310.2c.49.07.97.18 1.45.27-4.83 9.08-6.19 10.42-9.68 15.01-17.34 19.55-36.08 38.36-57.28 54.62-2.74 2.08-5.91 4.37-9.41 6.82 19.05-28.62 51.23-81.86 74.92-76.72zM856.29 577.35c32.52-18.46 64.8-37.24 96.76-56.47-18 31.49-34.89 63.48-51.18 95.72-6.7-1.66-13.67-2.34-20.56-1.26-22.97 4.12-52.91 23.33-71.86 40.76-2.15-16.45-4.31-32.9-6.49-49.34 17.84-9.72 35.63-19.5 53.33-29.41zm-69.28 190.73c-.55-.2-1.21-.46-1.75-.75-.59-.53-1.39-1.29-1.85-1.92-.33-.47-.52-.74-.65-.92-.39-.62-.77-1.25-1.1-1.9-.21-.49-.36-.82-.46-1.04-.1-.28-.21-.55-.29-.84-.14-.43-.24-.88-.36-1.31-.04-.25-.09-.53-.15-.88-.02-.17-.04-.31-.06-.45-.08-1.93-.07-3.85.04-5.78-.13 1.51-.35 2.8-.04.12l.06-.53c.02-.41.03-.82.06-1.23.01.25 0 .57-.02.9 1.32-13.27 6.52-28.45 11.3-38.57 2.18-4.41 4.69-8.62 7.46-12.66 2.71 21.37 5.35 42.75 7.9 64.13-.64.35-1.28.71-1.92 1.03-7.65 2.54-8.3 3.63-18.17 2.6zm36.26 147.82c2.1 18.42 4.4 36.82 6.82 55.21-10.76-14.7-22.8-28.66-35.57-42-12.09-13.09-24.44-25.95-38.05-37.8-34.08-31.48-71.16-60.46-111.45-85.4-18.74-11.03-37.19-22.67-57.57-31.2-17.37-7.26-35.33-13.38-53.25-19.45-2.77-.84-5.54-1.68-8.32-2.51 15.38-10.04 38.16-20.8 55.74-30.2C650.9 687.4 719.9 651.78 788.05 614.9c2.49 18.73 4.96 37.46 7.38 56.2-10.99 13.73-19.04 29.29-23.74 45.67-7.06 24.05-13.65 54.08 5.96 74.76 5.63 5.32 14.71 5.59 22.15 3.63 3.57-.72 7-1.91 10.31-3.46 4.34 41.4 8.36 82.84 13.16 124.2zm-1.63-162.3c-2.74-23.3-5.63-46.62-8.62-69.94 7.35-7.4 15.59-13.96 24.31-19.63 8.98-5.87 18.39-11.22 28.25-15.81 9.25-3.93 14.93-6.06 23.31-5.77-17.9 35.33-40.38 85.71-67.25 111.15zm74.99-33.61c2.24-2.67 4.82-5.07 7.11-6.88-2.06 3.16-4.34 5.33-7.11 6.88zm150.99 100.65c-2.18 7.94-2.21 8.03-4.26 11.84 1.28-7.95 3.72-21.11 7.18-34.71-.05.87-.11 1.73-.17 2.6-.22 2.47-.75 8.5-1.06 10.47-.15 1.99-1.23 7.44-1.69 9.8z"/>
    </g>
</svg>
