<?xml version="1.0" encoding="UTF-8"?>
<svg data-bbox="0 0 379.445 68.01" viewBox="0 0 379.443 68.003" height="68.003" width="379.443" xmlns="http://www.w3.org/2000/svg" data-type="ugc">
    <g>
        <defs>
            <linearGradient gradientUnits="objectBoundingBox" y2=".572" x2="0" y1=".61" x1=".987" id="54e0842d-9bde-4ba6-8667-d12ba79f89b1">
                <stop stop-color="#f59b64" offset="0"/>
                <stop stop-color="#e97466" offset=".263"/>
                <stop stop-color="#c75275" offset=".359"/>
                <stop stop-color="#a34782" offset=".495"/>
                <stop stop-color="#734f8c" offset=".621"/>
                <stop stop-color="#4558a0" offset=".818"/>
                <stop stop-color="#175fae" offset="1"/>
            </linearGradient>
        </defs>
        <path fill="url(#54e0842d-9bde-4ba6-8667-d12ba79f89b1)" transform="translate(-5.566 66.936)" d="M18.972 0v-43.835h.417L50.7 0h11.6v-66.936H48.892v43.6h-.371l-31.265-43.6H5.566V0zm71.436-9c-4.592 0-7.654-2.319-7.654-6.03 0-3.525 2.876-5.8 7.932-6.169l10.483-.649v3.618c0 5.381-4.869 9.23-10.761 9.23zM85.955.789c6.216 0 12.385-3.108 15.168-8.4h.278V0h13.081v-34.187c0-10.02-8.3-16.606-21.06-16.606-13.174 0-21.384 6.633-21.895 16.282h12.387c.649-3.665 3.85-6.169 8.906-6.169 5.1 0 8.35 2.69 8.35 7.329v3.293l-12.524.742C76.26-28.574 69.3-23.333 69.3-14.287 69.3-5.334 76.492.789 85.955.789zM123.2 0h13.545v-30.012c0-5.566 3.479-9.463 8.628-9.463 5.01 0 8.025 3.154 8.025 8.489V0h13.035v-30.2c0-5.52 3.386-9.277 8.535-9.277 5.242 0 8.118 3.154 8.118 8.906V0h13.545v-33.955c0-10.02-6.541-16.7-16.282-16.7-7.283 0-13.22 3.943-15.447 10.205h-.278c-1.67-6.494-6.68-10.205-13.87-10.205a14.6 14.6 0 0 0-14.194 9.927h-.278v-9H123.2zm101.219-9c-4.592 0-7.654-2.319-7.654-6.03 0-3.525 2.876-5.8 7.932-6.169l10.483-.649v3.618c.001 5.381-4.87 9.23-10.761 9.23zM219.966.789c6.216 0 12.385-3.108 15.168-8.4h.278V0h13.081v-34.187c0-10.02-8.3-16.606-21.06-16.606-13.174 0-21.384 6.633-21.895 16.282h12.385c.649-3.665 3.85-6.169 8.906-6.169 5.1 0 8.35 2.69 8.35 7.329v3.293l-12.524.742c-12.385.742-19.343 5.984-19.343 15.029C203.313-5.334 210.5.789 219.966.789zm36.414-35.9c0 7.329 4.824 12.246 14.241 14.38l9.185 2.041c4.453 1.067 6.123 2.458 6.123 4.963 0 3.247-3.108 5.288-8.257 5.288-5.381 0-8.674-2.412-9.324-6.587h-13.22c.742 9.695 8.906 16.1 22.173 16.1 13.127 0 22.126-6.448 22.126-16.235 0-7.422-4.036-11.365-14.009-13.591l-9.51-2.048c-4.36-1.021-6.494-2.69-6.494-5.149 0-3.2 3.062-5.334 7.747-5.334 5.01 0 8.21 2.458 8.489 6.448h12.478c-.186-9.648-8.3-15.957-20.781-15.957-12.757-.001-20.968 6.214-20.968 15.677zm53.391-26.069v11.458h-7v10.205h7v26.116c0 9.695 4.546 13.591 16.235 13.591a31.138 31.138 0 0 0 6.448-.557v-9.973a21.92 21.92 0 0 1-3.293.232c-3.989 0-5.845-1.809-5.845-5.613v-23.8h9.184v-10.206h-9.185v-11.457zm51.768 20.41c6.03 0 10.159 4.36 10.437 10.715h-21.107c.464-6.219 4.731-10.719 10.669-10.719zm10.623 25.559c-1.252 3.8-5.056 6.262-10.02 6.262-6.912 0-11.411-4.871-11.411-11.968v-.835h34.28v-4.128c0-15.122-9.138-24.91-23.611-24.91-14.7 0-23.982 10.3-23.982 26.162 0 15.911 9.185 25.7 24.492 25.7 12.292 0 21.2-6.541 22.683-16.282z"/>
    </g>
</svg>
