<svg xmlns="http://www.w3.org/2000/svg" width="202.605" height="203.162" viewBox="0 0 202.605 203.162">
  <g id="My_logo_01_Artboard_1" data-name="My logo 01 Artboard 1" transform="translate(-498.011 -304.99)">
    <path id="Path_1" data-name="Path 1" d="M780.376,751.641c0,.039,0,.075-.006.113.006-.069.011-.138.014-.2Z" transform="translate(-204.207 -322.96)"/>
    <path id="Path_2" data-name="Path 2" d="M695.8,409.738a223.716,223.716,0,0,0-24.108,6.125c-3.2.872-5.311,1.448-7.531,1.893a18.728,18.728,0,0,0-7.393,3.366,16.155,16.155,0,0,0-1.663,1.284,87.522,87.522,0,0,0-1.863-12.458c-.689-2.353-1.522-7.194-5.32-6.247a14.753,14.753,0,0,0-3.036,2.14c-.747.565-1.572,1.038-2.378,1.531a30.425,30.425,0,0,1-5.01,2.372c-1.763.623-1.019.346-3.017,1.032a12.709,12.709,0,0,0-3.731,2.43c-2.458-2.934-7.589-4.631-11.359-5.024-.343-.042-.686-.064-1.027-.078.8-5.051.949-11.586-3.778-14.891q.756-1.466,1.528-2.928,8.158-16.1,17.706-31.567a139.47,139.47,0,0,0,18.384-13.012c4.481-4.249,9.206-8.414,12.715-13.374,2.018-2.89,3.557-6.175,3.535-9.629-.075-4.548-3.061-7.672-8.453-6.294-3.8,1.34-6.479,4.376-9.029,7.108-5.633,6.67-10.083,14.072-14.824,21.26q-2.5,3.82-4.9,7.695c-4.107,2.571-8.315,5.129-11.81,7.235q-18.708,11.247-37.966,21.727c-3.385-25.586-6.682-51.125-8.636-76.445a244.985,244.985,0,0,0-.216,39.417c1.06,13.136,3.039,26.2,4.736,39.281q-12.227,6.647-24.587,13.095c-11.373,5.929-22.821,11.744-34.26,17.57-4.235,2.214-8.553,4.315-12.632,6.762-2.081,1.27-4.307,2.422-5.915,4.2-2.663,2.693-2.815,7.711.808,9.779a8.675,8.675,0,0,0,2.488.85c1.19.349,2.375.717,3.562,1.074,4.979,1.688,9.97,3.388,14.8,5.406,5.721,2.411,10.919,5.669,16.17,8.791a177.912,177.912,0,0,1,22.433,16.4c1.6,1.287,3.164,2.616,4.644,4.016,2.917,2.754,6.059,5.328,8.777,8.245,4.93,5.19,9.914,10.36,14.069,16.081q1.623,2.279,3.07,4.658c.418.681.819,1.373,1.2,2.07a10.36,10.36,0,0,0,2.054,4.844c2.225,2.065,3.518-1.591,3.388-3.225a11.979,11.979,0,0,0-1.663-5.71c-2.378-14.044-3.723-28.221-5.3-42.35q-.889-9.615-1.976-19.253c3.795-3.241,6.831-7.869,9.148-11.32,5.167-8.47,9.391-17.346,13.77-26.159a6.314,6.314,0,0,1,2.831,2.023c.055.149.1.274.136.379a15.589,15.589,0,0,1-.678,6.792c-5.331,1.622-9.64,6.181-10.507,11.141-.626,3.385,1.431,9.267,6.33,7.069,3.438-1.982,4.924-5.707,6.136-9.042.288-.819.567-1.644.833-2.472a17.081,17.081,0,0,1,11.268,3.41,5.369,5.369,0,0,1,.653.65c.418,1.171,1.088,2.892,2.688,2.322a3.707,3.707,0,0,0,1.315-1.614,13.369,13.369,0,0,1,1.032-.93c1.583-1.229,3.645-1.7,5.533-2.436a30.31,30.31,0,0,0,7.753-4.279c1.517-1.1.648-.695,2.04-1.417,1.309,3.606,2.079,9.651,2.336,16.377a37.883,37.883,0,0,0-3.164,8.489,103.92,103.92,0,0,0-3.33,14.982c-.263,2.627-.426,6.961,2.364,8.5,2.04.667,3.737-1.043,4.642-2.494,2.818-4.57,3.2-9.989,3.568-15.1.213-3.828.329-7.675.285-11.522a9.375,9.375,0,0,1,.922-1.019,20.167,20.167,0,0,1,1.993-1.76,28.079,28.079,0,0,1,4.489-2.718c2.754-1,5.585-1.816,8.27-2.967,7.116-3,14.027-6.38,21.132-9.4,2.765-1.2,5.538-2.375,8.339-3.5q-2.416.332-4.81.758ZM663.263,323.88c.136.019.268.05.4.075a21.776,21.776,0,0,1-2.679,4.155,114.817,114.817,0,0,1-15.854,15.118c-.758.576-1.636,1.21-2.6,1.888C647.8,337.194,656.706,322.458,663.263,323.88Zm-66.087,56.494q13.5-7.664,26.781-15.63c-4.982,8.716-9.657,17.57-14.166,26.494a14.4,14.4,0,0,0-5.691-.349c-6.358,1.14-14.645,6.457-19.89,11.282q-.893-6.83-1.8-13.656Q589.822,384.479,597.176,380.374ZM578,433.165a3.858,3.858,0,0,1-.484-.208,4.028,4.028,0,0,1-.512-.531c-.091-.13-.144-.2-.18-.255-.108-.172-.213-.346-.3-.526-.058-.136-.1-.227-.127-.288-.028-.078-.058-.152-.08-.232-.039-.119-.066-.244-.1-.363-.011-.069-.025-.147-.042-.244-.005-.047-.011-.086-.017-.125-.022-.534-.019-1.066.011-1.6-.036.418-.1.775-.011.033l.017-.147c.006-.113.008-.227.017-.34,0,.069,0,.158-.005.249a35.6,35.6,0,0,1,3.128-10.676,28.646,28.646,0,0,1,2.065-3.5q1.125,8.872,2.187,17.75c-.177.1-.354.2-.531.285C580.912,433.149,580.732,433.45,578,433.165Zm10.036,40.914q.872,7.648,1.888,15.281a115.959,115.959,0,0,0-9.845-11.625,136.132,136.132,0,0,0-10.532-10.462A203.266,203.266,0,0,0,538.7,443.636c-5.187-3.053-10.294-6.275-15.934-8.636-4.808-2.009-9.779-3.7-14.739-5.383q-1.15-.349-2.3-.695c4.257-2.779,10.562-5.757,15.428-8.359,19.175-9.729,38.273-19.588,57.136-29.8q1.034,7.776,2.043,15.555a36.28,36.28,0,0,0-6.571,12.641c-1.954,6.657-3.778,14.968,1.65,20.692,1.558,1.472,4.071,1.547,6.131,1a12.593,12.593,0,0,0,2.854-.958c1.2,11.459,2.314,22.929,3.642,34.376Zm-.451-44.922q-1.138-9.674-2.386-19.358a40.932,40.932,0,0,1,6.729-5.433,62.591,62.591,0,0,1,7.819-4.376c2.56-1.088,4.132-1.677,6.452-1.6C601.245,408.172,595.023,422.116,587.586,429.157Zm20.756-9.3a13.843,13.843,0,0,1,1.968-1.9A5.545,5.545,0,0,1,608.341,419.855Zm41.791,27.858a10.894,10.894,0,0,1-1.179,3.277c.354-2.2,1.03-5.843,1.987-9.607-.014.241-.03.479-.047.72-.061.684-.208,2.353-.293,2.9C650.559,445.551,650.26,447.06,650.133,447.713Z"/>
  </g>
</svg>
