<?xml version="1.0" encoding="UTF-8"?>
<svg data-bbox="0 0 182.877 65.855" viewBox="0 0 182.877 65.855" height="65.855" width="182.877" xmlns="http://www.w3.org/2000/svg" data-type="ugc">
    <g>
        <defs>
            <linearGradient gradientUnits="objectBoundingBox" y2=".5" x2="1" y1=".5" id="e60fa2e6-03a5-4fca-8b1e-6a81154add9a">
                <stop stop-color="#1a5ead" offset="0"/>
                <stop stop-color="#48589f" offset=".278"/>
                <stop stop-color="#9d4884" offset=".493"/>
                <stop stop-color="#e77266" offset=".69"/>
                <stop stop-color="#f59964" offset="1"/>
            </linearGradient>
        </defs>
        <path fill="url(#e60fa2e6-03a5-4fca-8b1e-6a81154add9a)" transform="translate(-5.391 64.822)" d="M61.723 0v-64.822H48.156V-38.5h-29.2v-26.322H5.391V0h13.566v-27.312h29.2V0zm31.76 1.033c14.555 0 23.854-9.3 23.854-25.156 0-15.633-9.434-25.066-23.854-25.066s-23.854 9.478-23.854 25.066c0 15.812 9.299 25.156 23.853 25.156zm0-10.018c-6.469 0-10.557-5.436-10.557-15.094 0-9.568 4.178-15.094 10.557-15.094s10.512 5.525 10.512 15.094c-.001 9.659-4.089 15.095-10.513 15.095zM124.389 0h13.117v-64.822h-13.117zm40.564-8.715c-4.447 0-7.412-2.246-7.412-5.84 0-3.414 2.785-5.615 7.682-5.975l10.152-.629v3.5c0 5.216-4.717 8.944-10.422 8.944zM160.641.764c6.02 0 11.994-3.01 14.689-8.131h.27V0h12.668v-33.107c0-9.7-8.041-16.082-20.395-16.082-12.758 0-20.709 6.424-21.2 15.768h11.994c.629-3.549 3.729-5.975 8.625-5.975 4.941 0 8.086 2.605 8.086 7.1v3.189l-12.129.719c-11.994.719-18.732 5.795-18.732 14.555-.003 8.667 6.96 14.597 16.124 14.597z"/>
    </g>
</svg>
